<svg width="95" height="62" viewBox="0 0 95 62" fill="none" xmlns="http://www.w3.org/2000/svg">
<g clip-path="url(#clip0_1_23)">
<path d="M2.46424 10.0615L80.8411 3.20277L81.6478 49.3965L26.8341 49.6869L16.8378 60.3257L15.4952 48.8491L4.46513 48.5162L2.46424 10.0615Z" fill="#6D0F43"/>
</g>
<path d="M16.7378 17.85H26.9678C29.6648 17.85 31.8968 19.431 31.8968 22.035C31.8968 24.205 30.4088 25.693 28.7968 26.251C31.3388 26.995 32.6408 29.227 32.6408 32.048C32.6408 36.357 29.6028 38 26.8438 38H16.7378C16.9858 36.853 16.9858 35.83 16.9858 34.156V21.694C16.9858 20.02 16.9858 18.997 16.7378 17.85ZM24.1468 25.724H24.5498C25.2008 25.724 25.5418 25.011 25.5418 23.833C25.5418 22.593 25.1698 22.066 24.3638 22.066H24.1158C24.0228 22.066 23.4958 22.097 23.1238 22.19V25.569C23.4338 25.693 23.9918 25.724 24.1468 25.724ZM24.3018 33.784H24.7978C25.8208 33.784 26.2858 32.947 26.2858 31.614C26.2858 30.281 25.8208 29.444 24.8908 29.444H24.3328C24.1778 29.444 23.4958 29.475 23.1238 29.63V33.629C23.5268 33.753 24.1468 33.784 24.3018 33.784ZM50.1309 21.818V31.18C50.1309 36.016 47.4649 38.465 42.3809 38.465C37.2039 38.465 34.6619 35.892 34.6619 31.521V21.849C34.6619 20.113 34.6619 19.059 34.4449 17.85H41.0479C40.7999 18.997 40.7999 19.989 40.7999 21.632V30.281C40.7999 33.443 41.5749 34.249 43.1249 34.249C44.7989 34.249 45.5429 33.257 45.5429 30.126V21.632C45.5429 19.989 45.5429 18.997 45.2949 17.85H50.3789C50.1309 19.059 50.1309 20.113 50.1309 21.818ZM67.8602 21.694L63.8612 30.25V34.156C63.8612 35.83 63.8612 36.853 64.0782 38H57.4752C57.7232 36.853 57.7232 35.83 57.7232 34.156V30.684L53.6932 21.694C52.9492 20.02 52.3292 18.873 51.5852 17.85H58.9632C59.3042 19.152 59.6452 20.051 60.2652 21.694L61.8152 25.848L63.3962 21.694C64.0472 20.237 64.4812 19.09 64.7602 17.85H69.9992C69.1622 18.966 68.5112 20.268 67.8602 21.694Z" fill="#E3EAD8"/>
<defs>
<clipPath id="clip0_1_23">
<rect width="89.0697" height="51.5939" fill="white" transform="translate(0 10.3498) rotate(-6.67276)"/>
</clipPath>
</defs>
</svg>
