<svg width="549" height="527" viewBox="0 0 549 527" fill="none" xmlns="http://www.w3.org/2000/svg">
<path d="M17.3186 111.892L545.866 111.892L527.366 416.237L143.866 416.237L56.7849 481L56.7849 416.237L2.86616 416.237L17.3186 111.892Z" fill="#6A7E5B"/>
<path d="M66.7765 171.45C63.2833 177.103 63.6644 183.2 64.4901 188.408L55.8524 188.154C54.3281 179.262 58.0753 172.022 62.4577 168.211L66.7765 171.45ZM55.9159 171.45C51.8511 177.103 52.2322 183.2 53.0579 188.408L44.4202 188.154C42.8959 179.262 46.8337 172.022 51.5336 168.211L55.9159 171.45ZM89.9609 214.003H79.6085C80.1165 211.844 80.1165 209.684 80.1165 206.128V179.58C79.926 179.516 79.672 179.516 79.4179 179.516H75.6707C74.0194 179.516 72.3045 179.834 69.256 181.294L69.51 172.72H100.313L100.631 181.294C97.5824 179.834 96.3122 179.516 94.1528 179.516H90.4055C90.088 179.516 89.8974 179.516 89.6434 179.58V206.128C89.7069 209.684 89.6434 211.844 89.9609 214.003ZM131.031 205.366C131.031 209.176 131.031 211.463 131.476 214.003H121.123C121.568 211.59 121.568 209.43 121.568 206.001V194.315C121.568 189.17 120.424 187.646 118.456 187.646C116.106 187.646 114.01 190.25 114.01 194.886V205.937C114.01 209.43 114.01 211.59 114.518 214.003H104.165C104.61 211.526 104.61 209.303 104.61 205.937V178.119C104.61 174.689 104.61 172.593 104.165 170.18H114.01V186.185C115.788 182.692 118.71 180.215 122.711 180.215C128.236 180.215 131.031 184.534 131.031 191.965V205.366ZM149.804 214.638C141.928 214.638 135.895 209.24 135.895 198.379C135.895 188.027 141.293 180.215 149.931 180.215C157.552 180.215 162.951 186.375 162.951 196.982L161.808 198.887H145.803C146.12 203.841 147.517 208.478 151.392 208.478C154.758 208.478 156.6 205.112 157.806 201.491L163.141 206.001C159.712 212.161 155.583 214.638 149.804 214.638ZM149.677 185.994C147.136 185.994 145.993 188.471 145.803 194.187H153.17C153.106 188.281 152.09 185.994 149.677 185.994ZM192.883 207.08H198.853C200.567 207.08 202.092 206.699 205.013 205.302L204.759 214.003H179.037C179.545 211.209 179.545 209.049 179.545 205.874V180.596C179.545 177.166 179.545 175.07 179.1 172.72H189.58C189.135 175.07 189.135 177.166 189.135 180.596V206.636C190.342 206.89 192.247 207.08 192.883 207.08ZM202.058 187.138C205.551 181.422 205.17 175.324 204.28 170.18L212.918 170.37C214.506 179.326 210.759 186.502 206.376 190.377L202.058 187.138ZM239.442 208.732C242.428 208.732 244.142 207.525 244.142 205.175C244.142 203.079 241.792 201.745 237.728 200.602C231.757 198.887 228.391 195.966 228.391 190.821C228.391 184.089 233.218 180.215 240.776 180.215C245.667 180.215 249.858 182.628 252.272 186.757L247.191 191.583C245.984 188.09 243.444 186.121 240.84 186.121C238.553 186.121 237.092 187.201 237.092 189.297C237.092 191.266 239.125 192.346 242.745 193.298C248.969 194.95 252.589 198.125 252.589 203.397C252.589 210.574 247.699 214.638 239.188 214.638C233.536 214.638 228.899 211.971 226.613 207.271L231.884 201.809C233.345 206.255 236.14 208.732 239.442 208.732ZM268.36 214.638C262.644 214.638 259.024 211.653 259.024 204.159V187.138H254.832V180.913H259.596L261.31 171.958H268.424V180.913H273.822V187.138H268.424V203.968C268.424 207.335 269.885 207.779 271.028 207.779C272.235 207.779 273.441 206.89 274.267 205.81L273.949 213.559C272.362 214.257 270.075 214.638 268.36 214.638ZM290.329 186.375C286.454 186.375 284.295 190.186 283.088 192.981L278.007 188.281C280.929 182.565 286.518 180.215 291.853 180.215C297.315 180.215 303.349 182.374 303.349 190.313V204.159C303.349 208.16 304.238 209.176 305.826 209.176C306.27 209.176 306.715 209.113 307.096 208.986V213.432C305.826 214.003 303.857 214.638 301.888 214.638C298.014 214.638 295.156 212.86 294.52 206.699C293.06 211.971 289.439 214.638 285.438 214.638C281.183 214.638 276.991 211.653 276.991 205.683C276.991 196.728 286.137 194.251 292.933 193.743L293.885 193.679V191.266C293.885 188.281 293.06 186.375 290.329 186.375ZM286.772 203.46C286.772 206.509 288.042 208.097 289.439 208.097C291.726 208.097 293.885 203.968 293.885 199.332V197.427L293.568 197.49C288.931 197.935 286.772 199.523 286.772 203.46ZM337.199 205.556C337.199 209.24 337.199 211.526 337.644 214.003H327.291C327.736 211.59 327.736 209.494 327.736 206.128V194.632C327.736 189.551 326.656 187.646 324.306 187.646C321.766 187.646 320.178 189.869 320.178 194.569V205.556C320.178 209.24 320.178 211.526 320.686 214.003H310.333C310.778 211.526 310.778 209.303 310.778 205.937V188.852C310.778 185.423 310.778 183.327 310.333 180.913H319.543V186.82C321.131 183.009 323.989 180.215 328.434 180.215C334.278 180.215 337.199 184.915 337.199 192.346V205.556ZM354.256 180.215C357.241 180.215 359.146 181.803 360.289 183.898V177.42C360.289 174.054 360.289 172.212 359.845 170.18H369.689V206.128C369.689 209.557 369.689 211.653 370.197 214.003H360.988V207.843C359.654 211.336 356.923 214.638 352.414 214.638C346.19 214.638 342.125 208.478 342.125 198.379C342.125 187.582 346.888 180.215 354.256 180.215ZM351.969 197.236C351.969 203.27 353.176 208.033 355.843 208.033C357.622 208.033 360.289 206.001 360.289 199.65V194.823C360.289 190.123 358.193 186.566 355.907 186.566C353.684 186.566 351.969 190.186 351.969 197.236ZM386.687 208.732C389.672 208.732 391.386 207.525 391.386 205.175C391.386 203.079 389.037 201.745 384.972 200.602C379.002 198.887 375.635 195.966 375.635 190.821C375.635 184.089 380.462 180.215 388.02 180.215C392.911 180.215 397.103 182.628 399.516 186.757L394.435 191.583C393.228 188.09 390.688 186.121 388.084 186.121C385.797 186.121 384.337 187.201 384.337 189.297C384.337 191.266 386.369 192.346 389.989 193.298C396.213 194.95 399.834 198.125 399.834 203.397C399.834 210.574 394.943 214.638 386.433 214.638C380.78 214.638 376.144 211.971 373.857 207.271L379.129 201.809C380.589 206.255 383.384 208.732 386.687 208.732ZM427.278 206.382C427.278 209.684 427.278 211.717 427.723 214.003H417.434C417.879 211.653 417.879 209.557 417.879 206.255V187.9H413.306V182.311L417.879 181.803C418.006 173.038 423.087 169.608 428.549 169.608C430.962 169.608 433.312 170.307 435.281 171.387L433.185 178.246C432.105 176.722 431.026 175.896 429.755 175.896C428.295 175.896 427.278 177.039 427.278 180.405V181.676H432.994V187.9H427.278V206.382ZM448.694 214.638C440.311 214.638 434.849 208.605 434.849 197.744C434.849 185.931 441.39 180.215 449.33 180.215C457.396 180.215 463.175 186.058 463.175 197.236C463.175 208.541 457.205 214.638 448.694 214.638ZM448.948 208.414C451.934 208.414 453.331 206.318 453.331 197.363C453.331 189.869 452.505 186.439 449.012 186.439C446.281 186.439 444.693 188.535 444.693 197.554C444.693 206.318 446.027 208.414 448.948 208.414ZM486.672 191.266C485.783 190.186 484.512 189.551 483.115 189.551C480.066 189.551 477.78 192.028 477.78 196.728V205.937C477.78 209.43 477.78 211.59 478.288 214.003H467.936C468.38 211.526 468.38 209.303 468.38 205.937V188.852C468.38 185.423 468.38 183.327 467.936 180.913H477.145V188.852C478.352 184.089 480.892 180.215 485.338 180.215C486.1 180.215 486.799 180.342 487.561 180.723L486.672 191.266ZM45.5634 233.72H64.363C70.0156 233.72 73.9534 237.086 73.9534 242.739C73.9534 247.439 71.2859 250.488 67.7292 251.504C72.7467 253.028 75.4777 257.093 75.4777 262.745C75.4777 271.002 70.3967 275.003 63.7914 275.003H45.5634C45.9445 273.161 46.008 270.621 46.008 267.128V241.596C46.008 238.103 45.9445 235.562 45.5634 233.72ZM58.901 250.361H60.6158C62.7752 250.361 63.9184 248.455 63.9184 245.216C63.9184 242.167 62.5847 240.58 60.1712 240.58H58.3929C57.5037 240.58 56.3605 240.643 55.5983 240.897V249.979C56.3605 250.234 57.6943 250.361 58.901 250.361ZM58.6469 268.144H61.1874C63.9184 268.144 65.4427 265.985 65.4427 262.364C65.4427 258.744 63.9184 256.648 61.2509 256.648H59.028C57.8213 256.648 56.3605 256.775 55.5983 257.029V267.826C56.424 268.017 57.6307 268.144 58.6469 268.144ZM80.3512 232.831C80.3512 229.338 82.4471 227.242 85.4322 227.242C88.4808 227.242 90.5767 229.338 90.5767 232.831C90.5767 236.324 88.4808 238.484 85.4322 238.484C82.4471 238.484 80.3512 236.324 80.3512 232.831ZM80.2242 241.913H90.0686V267.128C90.0686 270.557 90.0686 272.653 90.5767 275.003H80.2242C80.7323 272.59 80.7323 270.43 80.7323 267.128V249.852C80.7323 246.423 80.7323 244.327 80.2242 241.913ZM107.274 262.809H105.496C103.845 262.809 102.575 263.254 102.575 264.524C102.575 265.731 103.718 266.112 105.687 266.112H112.61C120.104 266.112 122.898 269.224 122.898 273.987C122.898 281.355 116.039 284.784 107.592 284.784C101.431 284.784 94.572 283.768 94.572 278.433C94.572 275.511 97.2395 273.797 100.606 272.907C97.8747 272.463 95.2072 270.684 95.2072 267.509C95.2072 264.46 97.2395 262.11 102.13 261.221C97.8747 259.824 95.7788 256.775 95.7788 252.139C95.7788 244.835 101.114 241.215 108.672 241.215C114.134 241.215 117.818 243.374 119.405 247.058C119.596 243.755 121.565 241.278 123.724 241.278C124.613 241.278 125.439 241.596 126.074 242.294V250.361C125.058 249.535 123.915 249.344 123.089 249.344C121.374 249.344 120.358 250.551 120.358 252.012C120.358 258.3 115.722 262.809 107.846 262.809C107.656 262.809 107.465 262.809 107.274 262.809ZM108.037 257.855C110.133 257.855 111.149 255.886 111.149 252.012C111.149 247.947 110.26 246.296 108.037 246.296C105.814 246.296 104.925 248.011 104.925 252.075C104.925 256.267 106.004 257.855 108.037 257.855ZM102.638 276.019C102.638 278.56 104.226 279.64 107.592 279.64C111.022 279.64 113.562 278.56 113.562 275.892C113.562 273.67 111.657 273.098 108.799 273.098H105.369C104.035 273.098 102.638 273.797 102.638 276.019ZM153.001 268.08H158.971C160.686 268.08 162.211 267.699 165.132 266.302L164.878 275.003H139.156C139.664 272.209 139.664 270.049 139.664 266.874V241.596C139.664 238.166 139.664 236.07 139.219 233.72H149.699C149.254 236.07 149.254 238.166 149.254 241.596V267.636C150.461 267.89 152.366 268.08 153.001 268.08ZM180.547 247.375C176.673 247.375 174.513 251.186 173.306 253.981L168.225 249.281C171.147 243.565 176.736 241.215 182.071 241.215C187.533 241.215 193.567 243.374 193.567 251.313V265.159C193.567 269.16 194.456 270.176 196.044 270.176C196.488 270.176 196.933 270.113 197.314 269.986V274.432C196.044 275.003 194.075 275.638 192.106 275.638C188.232 275.638 185.374 273.86 184.739 267.699C183.278 272.971 179.658 275.638 175.656 275.638C171.401 275.638 167.209 272.653 167.209 266.683C167.209 257.728 176.355 255.251 183.151 254.743L184.103 254.679V252.266C184.103 249.281 183.278 247.375 180.547 247.375ZM176.99 264.46C176.99 267.509 178.26 269.097 179.658 269.097C181.944 269.097 184.103 264.968 184.103 260.332V258.427L183.786 258.49C179.149 258.935 176.99 260.523 176.99 264.46ZM218.399 275.003V268.398C216.684 272.526 213.508 275.702 209.062 275.702C203.537 275.702 200.742 271.002 200.742 263.571V250.361C200.742 246.613 200.742 244.39 200.298 241.913H210.142V261.285C210.142 266.366 211.285 268.271 213.254 268.271C215.731 268.271 217.7 265.731 217.7 261.031V250.488C217.7 246.677 217.7 244.454 217.255 241.913H227.163V267.064C227.163 270.494 227.163 272.59 227.608 275.003H218.399ZM244.285 262.809H242.506C240.855 262.809 239.585 263.254 239.585 264.524C239.585 265.731 240.728 266.112 242.697 266.112H249.62C257.114 266.112 259.909 269.224 259.909 273.987C259.909 281.355 253.049 284.784 244.602 284.784C238.442 284.784 231.582 283.768 231.582 278.433C231.582 275.511 234.25 273.797 237.616 272.907C234.885 272.463 232.217 270.684 232.217 267.509C232.217 264.46 234.25 262.11 239.14 261.221C234.885 259.824 232.789 256.775 232.789 252.139C232.789 244.835 238.124 241.215 245.682 241.215C251.144 241.215 254.828 243.374 256.416 247.058C256.606 243.755 258.575 241.278 260.734 241.278C261.624 241.278 262.449 241.596 263.084 242.294V250.361C262.068 249.535 260.925 249.344 260.099 249.344C258.384 249.344 257.368 250.551 257.368 252.012C257.368 258.3 252.732 262.809 244.856 262.809C244.666 262.809 244.475 262.809 244.285 262.809ZM245.047 257.855C247.143 257.855 248.159 255.886 248.159 252.012C248.159 247.947 247.27 246.296 245.047 246.296C242.824 246.296 241.935 248.011 241.935 252.075C241.935 256.267 243.014 257.855 245.047 257.855ZM239.648 276.019C239.648 278.56 241.236 279.64 244.602 279.64C248.032 279.64 250.572 278.56 250.572 275.892C250.572 273.67 248.667 273.098 245.809 273.098H242.379C241.046 273.098 239.648 273.797 239.648 276.019ZM292.479 266.366C292.479 270.176 292.479 272.463 292.923 275.003H282.571C283.015 272.59 283.015 270.43 283.015 267.001V255.315C283.015 250.17 281.872 248.646 279.903 248.646C277.553 248.646 275.457 251.25 275.457 255.886V266.937C275.457 270.43 275.457 272.59 275.965 275.003H265.613C266.058 272.526 266.058 270.303 266.058 266.937V239.119C266.058 235.689 266.058 233.593 265.613 231.18H275.457V247.185C277.236 243.692 280.157 241.215 284.159 241.215C289.684 241.215 292.479 245.534 292.479 252.965V266.366ZM309.219 269.732C312.204 269.732 313.919 268.525 313.919 266.175C313.919 264.079 311.569 262.745 307.504 261.602C301.534 259.887 298.168 256.966 298.168 251.821C298.168 245.089 302.995 241.215 310.553 241.215C315.443 241.215 319.635 243.628 322.049 247.757L316.968 252.583C315.761 249.09 313.22 247.121 310.616 247.121C308.33 247.121 306.869 248.201 306.869 250.297C306.869 252.266 308.901 253.346 312.522 254.298C318.746 255.95 322.366 259.125 322.366 264.397C322.366 271.574 317.476 275.638 308.965 275.638C303.312 275.638 298.676 272.971 296.39 268.271L301.661 262.809C303.122 267.255 305.916 269.732 309.219 269.732ZM337.807 231.18H347.715V254.743L352.605 247.185C354.066 244.835 354.638 243.882 355.59 241.913H366.26C363.212 244.644 361.052 246.867 358.321 250.043L355.019 253.854L361.688 267.191C363.402 270.43 364.228 271.891 366.388 275.003H355.082C354.066 272.082 353.558 270.494 351.97 267.191L348.858 260.904L347.715 262.237V267.128C347.715 270.557 347.715 272.653 348.223 275.003H337.807C338.315 272.59 338.315 270.43 338.315 267.128V239.119C338.315 235.689 338.315 233.593 337.807 231.18ZM369.071 232.831C369.071 229.338 371.167 227.242 374.152 227.242C377.201 227.242 379.297 229.338 379.297 232.831C379.297 236.324 377.201 238.484 374.152 238.484C371.167 238.484 369.071 236.324 369.071 232.831ZM368.944 241.913H378.789V267.128C378.789 270.557 378.789 272.653 379.297 275.003H368.944C369.452 272.59 369.452 270.43 369.452 267.128V249.852C369.452 246.423 369.452 244.327 368.944 241.913ZM396.122 241.215C399.107 241.215 401.012 242.803 402.155 244.898V238.42C402.155 235.054 402.155 233.212 401.711 231.18H411.555V267.128C411.555 270.557 411.555 272.653 412.063 275.003H402.854V268.843C401.52 272.336 398.789 275.638 394.28 275.638C388.056 275.638 383.991 269.478 383.991 259.379C383.991 248.582 388.754 241.215 396.122 241.215ZM393.835 258.236C393.835 264.27 395.042 269.033 397.709 269.033C399.488 269.033 402.155 267.001 402.155 260.65V255.823C402.155 251.123 400.059 247.566 397.773 247.566C395.55 247.566 393.835 251.186 393.835 258.236ZM416.676 269.922C416.676 266.429 418.899 264.27 422.074 264.27C425.313 264.27 427.536 266.429 427.536 269.922C427.536 273.415 425.313 275.638 422.074 275.638C418.835 275.638 416.676 273.415 416.676 269.922ZM54.2646 315.171C54.2646 324.698 57.2497 329.843 61.632 329.843C64.5536 329.843 67.0941 326.54 68.6819 321.777L75.4142 327.683C72.3656 333.399 67.1576 336.765 60.6158 336.765C50.1998 336.765 44.1661 328.89 44.1661 315.933C44.1661 302.342 50.7714 293.958 61.378 293.958C67.5386 293.958 72.3656 297.007 74.779 302.659L67.9197 308.502C66.6495 304.057 64.4901 300.818 61.378 300.818C57.0591 300.818 54.2646 305.898 54.2646 315.171ZM90.8605 308.375C86.9863 308.375 84.8269 312.186 83.6201 314.981L78.5392 310.281C81.4607 304.565 87.0498 302.215 92.3848 302.215C97.8469 302.215 103.881 304.374 103.881 312.313V326.159C103.881 330.16 104.77 331.176 106.358 331.176C106.802 331.176 107.247 331.113 107.628 330.986V335.432C106.358 336.003 104.389 336.638 102.42 336.638C98.5455 336.638 95.6875 334.86 95.0523 328.699C93.5916 333.971 89.9714 336.638 85.9701 336.638C81.7148 336.638 77.523 333.653 77.523 327.683C77.523 318.728 86.6687 316.251 93.4645 315.743L94.4172 315.679V313.266C94.4172 310.281 93.5916 308.375 90.8605 308.375ZM87.3038 325.46C87.3038 328.509 88.5741 330.097 89.9714 330.097C92.2578 330.097 94.4172 325.968 94.4172 321.332V319.427L94.0997 319.49C89.4633 319.935 87.3038 321.523 87.3038 325.46ZM128.712 336.003V329.398C126.998 333.526 123.822 336.702 119.376 336.702C113.85 336.702 111.056 332.002 111.056 324.571V311.361C111.056 307.613 111.056 305.39 110.611 302.913H120.456V322.285C120.456 327.366 121.599 329.271 123.568 329.271C126.045 329.271 128.014 326.731 128.014 322.031V311.488C128.014 307.677 128.014 305.454 127.569 302.913H137.477V328.064C137.477 331.494 137.477 333.59 137.922 336.003H128.712ZM154.408 330.732C157.393 330.732 159.108 329.525 159.108 327.175C159.108 325.079 156.758 323.745 152.693 322.602C146.723 320.887 143.357 317.966 143.357 312.821C143.357 306.089 148.184 302.215 155.742 302.215C160.632 302.215 164.824 304.628 167.237 308.757L162.156 313.583C160.95 310.09 158.409 308.121 155.805 308.121C153.519 308.121 152.058 309.201 152.058 311.297C152.058 313.266 154.09 314.346 157.711 315.298C163.935 316.95 167.555 320.125 167.555 325.397C167.555 332.574 162.665 336.638 154.154 336.638C148.501 336.638 143.865 333.971 141.579 329.271L146.85 323.809C148.311 328.255 151.105 330.732 154.408 330.732ZM184.909 336.638C177.034 336.638 171 331.24 171 320.379C171 310.027 176.399 302.215 185.036 302.215C192.658 302.215 198.056 308.375 198.056 318.982L196.913 320.887H180.908C181.226 325.841 182.623 330.478 186.497 330.478C189.863 330.478 191.705 327.112 192.912 323.491L198.247 328.001C194.817 334.161 190.689 336.638 184.909 336.638ZM184.782 307.994C182.242 307.994 181.099 310.471 180.908 316.187H188.275C188.212 310.281 187.196 307.994 184.782 307.994ZM224.749 294.72C224.241 297.07 224.241 299.166 224.241 302.596V328.128C224.241 331.557 224.241 333.653 224.749 336.003H214.206C214.65 333.653 214.65 331.557 214.65 328.128V302.596C214.65 299.166 214.65 297.07 214.206 294.72H224.749ZM229.162 309.138C232.655 303.422 232.274 297.324 231.385 292.18L240.022 292.37C241.61 301.326 237.863 308.502 233.481 312.377L229.162 309.138ZM270.874 327.874C270.874 331.43 270.874 333.59 271.318 336.003H261.029C261.474 333.653 261.474 331.621 261.474 328.382V316.696C261.474 311.551 260.648 309.646 258.489 309.646C255.694 309.646 254.805 312.821 254.805 317.458V327.683C254.805 331.303 254.805 333.526 255.313 336.003H244.961C245.405 333.526 245.405 331.303 245.405 327.937V310.852C245.405 307.423 245.405 305.327 244.961 302.913H254.17V309.011C255.694 305.136 258.362 302.215 262.617 302.215C266.682 302.215 269.159 304.882 270.238 309.138C271.763 305.2 274.557 302.215 278.94 302.215C284.656 302.215 287.006 307.042 287.006 314.727V327.874C287.006 331.43 287.006 333.59 287.514 336.003H277.098C277.606 333.653 277.606 331.621 277.606 328.382V316.696C277.606 311.551 277.161 309.646 275.002 309.646C272.144 309.646 270.874 312.821 270.874 317.458V327.874ZM315.946 328.382C315.946 331.684 315.946 333.717 316.39 336.003H306.101C306.546 333.653 306.546 331.557 306.546 328.255V309.9H301.973V304.311L306.546 303.803C306.673 295.038 311.754 291.608 317.216 291.608C319.63 291.608 321.98 292.307 323.948 293.387L321.853 300.246C320.773 298.722 319.693 297.896 318.423 297.896C316.962 297.896 315.946 299.039 315.946 302.405V303.676H321.662V309.9H315.946V328.382ZM343.128 336.003V329.398C341.413 333.526 338.238 336.702 333.792 336.702C328.266 336.702 325.472 332.002 325.472 324.571V311.361C325.472 307.613 325.472 305.39 325.027 302.913H334.872V322.285C334.872 327.366 336.015 329.271 337.984 329.271C340.461 329.271 342.429 326.731 342.429 322.031V311.488C342.429 307.677 342.429 305.454 341.985 302.913H351.893V328.064C351.893 331.494 351.893 333.59 352.337 336.003H343.128ZM385.019 327.556C385.019 331.24 385.019 333.526 385.464 336.003H375.112C375.556 333.59 375.556 331.494 375.556 328.128V316.632C375.556 311.551 374.476 309.646 372.126 309.646C369.586 309.646 367.998 311.869 367.998 316.569V327.556C367.998 331.24 367.998 333.526 368.506 336.003H358.154C358.598 333.526 358.598 331.303 358.598 327.937V310.852C358.598 307.423 358.598 305.327 358.154 302.913H367.363V308.82C368.951 305.009 371.809 302.215 376.255 302.215C382.098 302.215 385.019 306.915 385.019 314.346V327.556ZM417.954 327.556C417.954 331.24 417.954 333.526 418.399 336.003H408.046C408.491 333.59 408.491 331.494 408.491 328.128V316.632C408.491 311.551 407.411 309.646 405.061 309.646C402.52 309.646 400.933 311.869 400.933 316.569V327.556C400.933 331.24 400.933 333.526 401.441 336.003H391.088C391.533 333.526 391.533 331.303 391.533 327.937V310.852C391.533 307.423 391.533 305.327 391.088 302.913H400.298V308.82C401.885 305.009 404.743 302.215 409.189 302.215C415.032 302.215 417.954 306.915 417.954 314.346V327.556ZM439.666 335.178C436.999 342.355 432.87 345.784 427.726 345.784C425.948 345.784 423.534 345.34 421.565 344.387L423.979 335.622C425.821 338.226 427.218 339.242 428.615 339.242C429.949 339.242 431.156 338.226 432.172 336.384L431.537 336.511L423.344 310.471C422.581 307.931 421.756 305.644 420.613 302.913H431.473C431.854 305.517 432.235 307.423 432.997 310.154L436.808 323.809L440.365 310.154C441.063 307.423 441.508 305.835 442.016 302.913H450.146C449.003 305.898 448.431 307.55 447.605 310.154L439.666 335.178ZM449.548 330.922C449.548 327.429 451.771 325.27 454.947 325.27C458.186 325.27 460.409 327.429 460.409 330.922C460.409 334.415 458.186 336.638 454.947 336.638C451.708 336.638 449.548 334.415 449.548 330.922ZM467.463 309.074C471.528 303.422 471.083 297.261 470.258 292.116L478.895 292.307C480.483 301.262 476.482 308.502 471.846 312.313L467.463 309.074ZM456.603 309.074C460.096 303.422 459.715 297.261 458.826 292.116L467.463 292.307C469.051 301.262 465.304 308.502 460.921 312.313L456.603 309.074Z" fill="#E3EAD8"/>
</svg>
