<svg width="134" height="80" viewBox="0 0 134 80" fill="none" xmlns="http://www.w3.org/2000/svg">
<path d="M42.8719 47.7945C47.4319 48.8025 50.2159 52.4025 50.2159 57.5865C50.2159 63.7305 46.2799 67.6665 40.1359 67.6665H27.1759V29.7465H38.9359C44.6479 29.7465 48.2959 33.3945 48.2959 39.1065C48.2959 43.3785 46.2799 46.4985 42.8719 47.7945ZM32.4559 34.5465V45.5865H37.4959C40.8559 45.5865 43.0159 43.4265 43.0159 40.0665C43.0159 36.7065 40.8559 34.5465 37.4959 34.5465H32.4559ZM38.6959 62.8665C42.5359 62.8665 44.9359 60.4665 44.9359 56.6265C44.9359 52.7865 42.5359 50.3865 38.6959 50.3865H32.4559V62.8665H38.6959ZM62.4372 36.4665V29.7465H67.7172V36.4665H62.4372ZM67.7172 62.8665H77.5572V67.6665H52.5972V62.8665H62.4372V46.5465H52.5972V41.7465H67.7172V62.8665ZM96.7384 41.7465H102.018V79.6665H79.4584V75.1065H96.7384V65.1705C94.9624 67.0905 92.6104 68.1465 89.7784 68.1465C83.4904 68.1465 79.4584 62.9145 79.4584 54.7065C79.4584 46.4985 83.4904 41.2665 89.7784 41.2665C92.6104 41.2665 94.9624 42.3225 96.7384 44.2425V41.7465ZM90.9784 63.3465C94.7704 63.3465 97.2184 59.9865 97.2184 54.7065C97.2184 49.4265 94.7704 46.0665 90.9784 46.0665C87.1864 46.0665 84.7384 49.4265 84.7384 54.7065C84.7384 59.9865 87.1864 63.3465 90.9784 63.3465ZM107.76 67.6665V29.7465H113.04V62.8665H130.8V67.6665H107.76Z" fill="#6D0F43"/>
<line x1="26" y1="20" x2="26" y2="8.59295e-08" stroke="#6D0F43" stroke-width="4"/>
<line x1="20" y1="34" x2="1.78767e-07" y2="34" stroke="#6D0F43" stroke-width="4"/>
<line y1="-2" x2="19.9429" y2="-2" transform="matrix(-0.871731 -0.489985 0.510082 -0.860126 20.5078 21.9321)" stroke="#6D0F43" stroke-width="4"/>
</svg>
