<svg width="216" height="104" viewBox="0 0 216 104" fill="none" xmlns="http://www.w3.org/2000/svg">
<mask id="path-1-outside-1_1_150" maskUnits="userSpaceOnUse" x="-0.517578" y="-0.988281" width="218" height="106" fill="black">
<rect fill="white" x="-0.517578" y="-0.988281" width="218" height="106"/>
<path d="M33.069 37.7271C42.5425 39.8213 48.3263 47.3004 48.3263 58.0703C48.3263 70.8346 40.1492 79.0117 27.3849 79.0117H0.460121V0.231945H24.8918C36.7587 0.231945 44.3375 7.81076 44.3375 19.6776C44.3375 28.5528 40.1492 35.0347 33.069 37.7271ZM11.4295 10.2041V33.14H21.9002C28.8807 33.14 33.3681 28.6525 33.3681 21.672C33.3681 14.6915 28.8807 10.2041 21.9002 10.2041H11.4295ZM24.3932 69.0396C32.3709 69.0396 37.357 64.0535 37.357 56.0758C37.357 48.0981 32.3709 43.1121 24.3932 43.1121H11.4295V69.0396H24.3932ZM73.7163 14.1929V0.231945H84.6856V14.1929H73.7163ZM84.6856 69.0396H105.128V79.0117H53.2734V69.0396H73.7163V35.1344H53.2734V25.1623H84.6856V69.0396ZM144.978 25.1623H155.947V103.942H109.078V94.4685H144.978V73.8262C141.288 77.8151 136.402 80.0089 130.518 80.0089C117.455 80.0089 109.078 69.1393 109.078 52.087C109.078 35.0347 117.455 24.165 130.518 24.165C136.402 24.165 141.288 26.3589 144.978 30.3478V25.1623ZM133.011 70.0368C140.889 70.0368 145.975 63.0563 145.975 52.087C145.975 41.1176 140.889 34.1372 133.011 34.1372C125.133 34.1372 120.048 41.1176 120.048 52.087C120.048 63.0563 125.133 70.0368 133.011 70.0368ZM167.875 79.0117V0.231945H178.844V69.0396H215.741V79.0117H167.875Z"/>
</mask>
<path d="M33.069 37.7271C42.5425 39.8213 48.3263 47.3004 48.3263 58.0703C48.3263 70.8346 40.1492 79.0117 27.3849 79.0117H0.460121V0.231945H24.8918C36.7587 0.231945 44.3375 7.81076 44.3375 19.6776C44.3375 28.5528 40.1492 35.0347 33.069 37.7271ZM11.4295 10.2041V33.14H21.9002C28.8807 33.14 33.3681 28.6525 33.3681 21.672C33.3681 14.6915 28.8807 10.2041 21.9002 10.2041H11.4295ZM24.3932 69.0396C32.3709 69.0396 37.357 64.0535 37.357 56.0758C37.357 48.0981 32.3709 43.1121 24.3932 43.1121H11.4295V69.0396H24.3932ZM73.7163 14.1929V0.231945H84.6856V14.1929H73.7163ZM84.6856 69.0396H105.128V79.0117H53.2734V69.0396H73.7163V35.1344H53.2734V25.1623H84.6856V69.0396ZM144.978 25.1623H155.947V103.942H109.078V94.4685H144.978V73.8262C141.288 77.8151 136.402 80.0089 130.518 80.0089C117.455 80.0089 109.078 69.1393 109.078 52.087C109.078 35.0347 117.455 24.165 130.518 24.165C136.402 24.165 141.288 26.3589 144.978 30.3478V25.1623ZM133.011 70.0368C140.889 70.0368 145.975 63.0563 145.975 52.087C145.975 41.1176 140.889 34.1372 133.011 34.1372C125.133 34.1372 120.048 41.1176 120.048 52.087C120.048 63.0563 125.133 70.0368 133.011 70.0368ZM167.875 79.0117V0.231945H178.844V69.0396H215.741V79.0117H167.875Z" fill="black"/>
<path d="M33.069 37.7271L32.7639 36.9249L30.0803 37.9454L32.8837 38.5652L33.069 37.7271ZM0.460121 79.0117H-0.398143V79.87H0.460121V79.0117ZM0.460121 0.231945V-0.626319H-0.398143V0.231945H0.460121ZM11.4295 10.2041V9.3458H10.5712V10.2041H11.4295ZM11.4295 33.14H10.5712V33.9982H11.4295V33.14ZM11.4295 43.1121V42.2538H10.5712V43.1121H11.4295ZM11.4295 69.0396H10.5712V69.8979H11.4295V69.0396ZM32.8837 38.5652C37.4392 39.5722 41.0692 41.862 43.5657 45.163C46.065 48.4678 47.468 52.8397 47.468 58.0703H49.1846C49.1846 52.5309 47.6957 47.7784 44.9347 44.1276C42.1709 40.473 38.1723 37.9762 33.2542 36.8891L32.8837 38.5652ZM47.468 58.0703C47.468 64.266 45.4872 69.2688 42.0353 72.7207C38.5834 76.1726 33.5806 78.1535 27.3849 78.1535V79.87C33.9534 79.87 39.4213 77.7623 43.2491 73.9345C47.0769 70.1067 49.1846 64.6388 49.1846 58.0703H47.468ZM27.3849 78.1535H0.460121V79.87H27.3849V78.1535ZM1.31839 79.0117V0.231945H-0.398143V79.0117H1.31839ZM0.460121 1.09021H24.8918V-0.626319H0.460121V1.09021ZM24.8918 1.09021C30.6395 1.09021 35.2681 2.92188 38.4578 6.11159C41.6475 9.30129 43.4792 13.9299 43.4792 19.6776H45.1957C45.1957 13.5585 43.238 8.46423 39.6716 4.89782C36.1052 1.33141 31.0109 -0.626319 24.8918 -0.626319V1.09021ZM43.4792 19.6776C43.4792 28.2558 39.4588 34.379 32.7639 36.9249L33.374 38.5293C40.8395 35.6904 45.1957 28.8497 45.1957 19.6776H43.4792ZM10.5712 10.2041V33.14H12.2877V10.2041H10.5712ZM11.4295 33.9982H21.9002V32.2817H11.4295V33.9982ZM21.9002 33.9982C25.5776 33.9982 28.6768 32.8125 30.8587 30.6305C33.0406 28.4486 34.2264 25.3494 34.2264 21.672H32.5099C32.5099 24.9751 31.4519 27.6098 29.645 29.4168C27.838 31.2237 25.2033 32.2817 21.9002 32.2817V33.9982ZM34.2264 21.672C34.2264 17.9946 33.0406 14.8954 30.8587 12.7135C28.6768 10.5316 25.5776 9.3458 21.9002 9.3458V11.0623C25.2033 11.0623 27.838 12.1203 29.645 13.9272C31.4519 15.7342 32.5099 18.3689 32.5099 21.672H34.2264ZM21.9002 9.3458H11.4295V11.0623H21.9002V9.3458ZM24.3932 69.8979C28.5631 69.8979 32.0387 68.5911 34.4736 66.1562C36.9085 63.7213 38.2152 60.2457 38.2152 56.0758H36.4987C36.4987 59.8837 35.3124 62.8899 33.2598 64.9425C31.2073 66.995 28.2011 68.1813 24.3932 68.1813V69.8979ZM38.2152 56.0758C38.2152 51.906 36.9085 48.4303 34.4736 45.9954C32.0387 43.5605 28.5631 42.2538 24.3932 42.2538V43.9703C28.2011 43.9703 31.2073 45.1566 33.2598 47.2092C35.3124 49.2618 36.4987 52.268 36.4987 56.0758H38.2152ZM24.3932 42.2538H11.4295V43.9703H24.3932V42.2538ZM10.5712 43.1121V69.0396H12.2877V43.1121H10.5712ZM11.4295 69.8979H24.3932V68.1813H11.4295V69.8979ZM73.7163 14.1929H72.858V15.0512H73.7163V14.1929ZM73.7163 0.231945V-0.626319H72.858V0.231945H73.7163ZM84.6856 0.231945H85.5439V-0.626319H84.6856V0.231945ZM84.6856 14.1929V15.0512H85.5439V14.1929H84.6856ZM84.6856 69.0396H83.8273V69.8979H84.6856V69.0396ZM105.128 69.0396H105.987V68.1813H105.128V69.0396ZM105.128 79.0117V79.87H105.987V79.0117H105.128ZM53.2734 79.0117H52.4152V79.87H53.2734V79.0117ZM53.2734 69.0396V68.1813H52.4152V69.0396H53.2734ZM73.7163 69.0396V69.8979H74.5745V69.0396H73.7163ZM73.7163 35.1344H74.5745V34.2761H73.7163V35.1344ZM53.2734 35.1344H52.4152V35.9926H53.2734V35.1344ZM53.2734 25.1623V24.304H52.4152V25.1623H53.2734ZM84.6856 25.1623H85.5439V24.304H84.6856V25.1623ZM74.5745 14.1929V0.231945H72.858V14.1929H74.5745ZM73.7163 1.09021H84.6856V-0.626319H73.7163V1.09021ZM83.8273 0.231945V14.1929H85.5439V0.231945H83.8273ZM84.6856 13.3347H73.7163V15.0512H84.6856V13.3347ZM84.6856 69.8979H105.128V68.1813H84.6856V69.8979ZM104.27 69.0396V79.0117H105.987V69.0396H104.27ZM105.128 78.1535H53.2734V79.87H105.128V78.1535ZM54.1317 79.0117V69.0396H52.4152V79.0117H54.1317ZM53.2734 69.8979H73.7163V68.1813H53.2734V69.8979ZM74.5745 69.0396V35.1344H72.858V69.0396H74.5745ZM73.7163 34.2761H53.2734V35.9926H73.7163V34.2761ZM54.1317 35.1344V25.1623H52.4152V35.1344H54.1317ZM53.2734 26.0205H84.6856V24.304H53.2734V26.0205ZM83.8273 25.1623V69.0396H85.5439V25.1623H83.8273ZM144.978 25.1623V24.304H144.12V25.1623H144.978ZM155.947 25.1623H156.806V24.304H155.947V25.1623ZM155.947 103.942V104.8H156.806V103.942H155.947ZM109.078 103.942H108.22V104.8H109.078V103.942ZM109.078 94.4685V93.6102H108.22V94.4685H109.078ZM144.978 94.4685V95.3268H145.836V94.4685H144.978ZM144.978 73.8262H145.836V71.6344L144.348 73.2434L144.978 73.8262ZM144.978 30.3478L144.348 30.9306L145.836 32.5395V30.3478H144.978ZM144.978 26.0205H155.947V24.304H144.978V26.0205ZM155.089 25.1623V103.942H156.806V25.1623H155.089ZM155.947 103.084H109.078V104.8H155.947V103.084ZM109.937 103.942V94.4685H108.22V103.942H109.937ZM109.078 95.3268H144.978V93.6102H109.078V95.3268ZM145.836 94.4685V73.8262H144.12V94.4685H145.836ZM144.348 73.2434C140.824 77.0534 136.167 79.1507 130.518 79.1507V80.8672C136.637 80.8672 141.753 78.5767 145.608 74.409L144.348 73.2434ZM130.518 79.1507C124.251 79.1507 119.143 76.5552 115.58 71.9195C112 67.2615 109.937 60.4831 109.937 52.087H108.22C108.22 60.7432 110.345 67.9258 114.219 72.9656C118.11 78.0279 123.723 80.8672 130.518 80.8672V79.1507ZM109.937 52.087C109.937 43.6909 112 36.9125 115.58 32.2544C119.143 27.6188 124.251 25.0233 130.518 25.0233V23.3068C123.723 23.3068 118.11 26.1461 114.219 31.2084C110.345 36.2482 108.22 43.4307 108.22 52.087H109.937ZM130.518 25.0233C136.167 25.0233 140.824 27.1206 144.348 30.9306L145.608 29.765C141.753 25.5973 136.637 23.3068 130.518 23.3068V25.0233ZM145.836 30.3478V25.1623H144.12V30.3478H145.836ZM133.011 70.8951C137.236 70.8951 140.731 69.0092 143.143 65.6787C145.536 62.3737 146.833 57.6921 146.833 52.087H145.117C145.117 57.4512 143.872 61.7445 141.752 64.6721C139.651 67.5742 136.665 69.1785 133.011 69.1785V70.8951ZM146.833 52.087C146.833 46.4819 145.536 41.8002 143.143 38.4953C140.731 35.1648 137.236 33.2789 133.011 33.2789V34.9954C136.665 34.9954 139.651 36.5998 141.752 39.5019C143.872 42.4295 145.117 46.7228 145.117 52.087H146.833ZM133.011 33.2789C128.787 33.2789 125.291 35.1648 122.88 38.4953C120.487 41.8002 119.189 46.4819 119.189 52.087H120.906C120.906 46.7228 122.151 42.4295 124.271 39.5019C126.372 36.5998 129.358 34.9954 133.011 34.9954V33.2789ZM119.189 52.087C119.189 57.6921 120.487 62.3737 122.88 65.6787C125.291 69.0092 128.787 70.8951 133.011 70.8951V69.1785C129.358 69.1785 126.372 67.5742 124.271 64.6721C122.151 61.7445 120.906 57.4512 120.906 52.087H119.189ZM167.875 79.0117H167.017V79.87H167.875V79.0117ZM167.875 0.231945V-0.626319H167.017V0.231945H167.875ZM178.844 0.231945H179.703V-0.626319H178.844V0.231945ZM178.844 69.0396H177.986V69.8979H178.844V69.0396ZM215.741 69.0396H216.599V68.1813H215.741V69.0396ZM215.741 79.0117V79.87H216.599V79.0117H215.741ZM168.733 79.0117V0.231945H167.017V79.0117H168.733ZM167.875 1.09021H178.844V-0.626319H167.875V1.09021ZM177.986 0.231945V69.0396H179.703V0.231945H177.986ZM178.844 69.8979H215.741V68.1813H178.844V69.8979ZM214.883 69.0396V79.0117H216.599V69.0396H214.883ZM215.741 78.1535H167.875V79.87H215.741V78.1535Z" fill="black" mask="url(#path-1-outside-1_1_150)"/>
</svg>
