<svg width="309" height="137" viewBox="0 0 309 137" fill="none" xmlns="http://www.w3.org/2000/svg">
<rect x="85" y="73" width="223" height="63" rx="5" fill="#DFBF7D" stroke="#DFBF7D" stroke-width="2"/>
<line x1="89.4965" y1="0.844239" x2="92.1626" y2="60.6931" stroke="#DFBF7D" stroke-width="7"/>
<line x1="25.2329" y1="36.3048" x2="71.3655" y2="74.525" stroke="#DFBF7D" stroke-width="7"/>
<line x1="0.0643469" y1="101.501" x2="59.9625" y2="102.602" stroke="#DFBF7D" stroke-width="7"/>
<path d="M120.1 112.48C121.72 112.48 123.988 111.616 123.988 108.736C123.988 105.748 122.224 105.388 120.028 104.596C116.14 103.264 113.872 102.112 113.872 97.828C113.872 93.076 117.472 91.276 120.892 91.276C123.268 91.276 125.932 92.032 127.624 95.164L125.32 97.972C124.312 95.272 123.268 94.12 121.18 94.12C119.416 94.12 117.652 94.948 117.652 97.504C117.652 100.096 119.38 100.492 121.432 101.212C125.716 102.58 127.732 104.128 127.732 108.124C127.732 113.128 123.52 115.324 120.28 115.324C117.436 115.324 114.232 114.028 112.756 110.68L115.024 107.98C115.996 110.5 117.4 112.48 120.1 112.48ZM134.848 115.36C132.472 115.36 130.888 113.884 130.888 109.564V99.124H128.512V96.604H131.068L131.752 91.168H134.524V96.604H137.692V99.124H134.524V110.32C134.524 112.228 135.46 112.48 136.072 112.48C136.792 112.48 137.44 111.976 137.944 111.328L137.8 114.712C136.828 115.144 135.892 115.36 134.848 115.36ZM145.821 98.728C143.445 98.728 142.401 100.96 141.825 102.472L139.341 100.6C140.385 97.864 143.193 96.244 146.253 96.244C148.809 96.244 151.869 97.396 151.869 101.068V109.492C151.869 112.048 152.229 112.732 153.489 112.732C153.741 112.732 153.993 112.696 154.281 112.624V114.82C153.525 115.144 152.697 115.36 151.869 115.36C150.141 115.36 148.881 114.352 148.593 110.896C147.765 113.848 145.749 115.36 143.409 115.36C141.105 115.36 138.657 113.992 138.657 110.608C138.657 105.748 143.841 104.128 147.693 103.804L148.233 103.768V101.644C148.233 99.88 147.549 98.728 145.821 98.728ZM142.473 109.744C142.473 111.796 143.517 112.84 144.633 112.84C146.469 112.84 148.233 109.96 148.233 106.684V105.64L147.837 105.676C144.201 106.072 142.473 107.152 142.473 109.744ZM165.075 100.888C164.463 100.132 163.815 99.772 162.951 99.772C160.791 99.772 159.279 101.86 159.279 105.208V110.572C159.279 112.48 159.279 113.668 159.567 115H155.391C155.643 113.632 155.643 112.408 155.643 110.572V101.104C155.643 99.16 155.643 97.972 155.391 96.604H159.063V101.14C159.711 98.44 161.151 96.244 163.923 96.244C164.535 96.244 165.003 96.388 165.579 96.64L165.075 100.888ZM171.686 115.36C169.31 115.36 167.726 113.884 167.726 109.564V99.124H165.35V96.604H167.906L168.59 91.168H171.362V96.604H174.53V99.124H171.362V110.32C171.362 112.228 172.298 112.48 172.91 112.48C173.63 112.48 174.278 111.976 174.782 111.328L174.638 114.712C173.666 115.144 172.73 115.36 171.686 115.36ZM182.707 91.6H192.067C195.415 91.6 197.287 93.544 197.287 96.964C197.287 99.736 196.135 101.536 193.795 102.04C196.603 102.868 198.151 104.92 198.151 108.016C198.151 112.372 195.883 115 191.599 115H182.707C182.851 114.244 182.959 112.516 182.959 110.536V96.064C182.959 94.084 182.851 92.356 182.707 91.6ZM189.223 101.356H190.699C192.391 101.356 193.327 99.988 193.327 97.72C193.327 95.704 192.247 94.48 190.447 94.48H188.719C187.783 94.48 187.099 94.552 186.667 94.696V101.104C187.135 101.248 187.999 101.356 189.223 101.356ZM188.791 112.12H191.059C193.003 112.12 194.155 110.608 194.155 108.088C194.155 105.532 193.003 104.128 190.987 104.128H189.187C187.963 104.128 187.099 104.272 186.667 104.416V111.904C187.099 112.048 187.819 112.12 188.791 112.12ZM200.429 91.492C200.429 90.088 201.293 89.08 202.589 89.08C203.849 89.08 204.749 90.088 204.749 91.492C204.749 92.932 203.849 93.94 202.589 93.94C201.293 93.94 200.429 92.932 200.429 91.492ZM200.501 96.604H204.389V110.536C204.389 112.48 204.389 113.668 204.641 115H200.501C200.753 113.632 200.753 112.408 200.753 110.536V101.104C200.753 99.16 200.753 97.972 200.501 96.604ZM213.047 108.556H211.931C210.491 108.556 209.951 108.916 209.951 109.636C209.951 110.428 210.491 110.644 211.535 110.644H215.819C219.239 110.644 220.787 112.228 220.787 114.892C220.787 118.744 217.583 120.544 212.975 120.544C210.491 120.544 206.459 119.932 206.459 116.584C206.459 114.964 207.719 113.956 209.411 113.416C207.935 113.128 206.963 112.336 206.963 110.752C206.963 109.204 207.935 108.088 210.203 107.62C208.187 106.792 207.143 105.1 207.143 102.544C207.143 98.368 209.879 96.244 213.515 96.244C216.359 96.244 218.267 97.648 219.059 99.736C219.059 97.612 220.175 96.28 221.327 96.28C221.939 96.28 222.407 96.496 222.659 96.964V100.708C222.119 100.312 221.615 100.096 221.219 100.096C220.031 100.096 219.527 101.248 219.527 102.328C219.527 106.036 217.295 108.556 213.263 108.556C213.191 108.556 213.119 108.556 213.047 108.556ZM213.263 106.36C214.955 106.36 215.927 105.136 215.927 102.436C215.927 99.808 215.135 98.548 213.443 98.548C211.715 98.548 210.743 99.88 210.743 102.472C210.743 105.208 211.751 106.36 213.263 106.36ZM209.915 115.576C209.915 117.412 211.031 118.24 213.299 118.24C215.639 118.24 217.295 117.484 217.295 115.54C217.295 114.028 216.287 113.632 214.739 113.632C213.623 113.632 212.039 113.632 211.535 113.596C210.635 113.668 209.915 114.172 209.915 115.576ZM230.026 112.12H233.734C234.706 112.12 235.606 111.904 237.262 111.112L237.154 115H223.798C224.086 113.416 224.086 112.192 224.086 110.392V96.064C224.086 94.12 224.086 92.932 223.834 91.6H228.082C227.794 92.932 227.794 94.12 227.794 96.064V111.832C228.514 111.976 229.666 112.12 230.026 112.12ZM238.568 91.492C238.568 90.088 239.432 89.08 240.728 89.08C241.988 89.08 242.888 90.088 242.888 91.492C242.888 92.932 241.988 93.94 240.728 93.94C239.432 93.94 238.568 92.932 238.568 91.492ZM238.64 96.604H242.528V110.536C242.528 112.48 242.528 113.668 242.78 115H238.64C238.892 113.632 238.892 112.408 238.892 110.536V101.104C238.892 99.16 238.892 97.972 238.64 96.604ZM259.502 110.464C259.502 112.444 259.502 113.632 259.754 115H255.614C255.866 113.596 255.866 112.3 255.866 110.356V103.516C255.866 100.312 254.966 98.872 253.022 98.872C250.934 98.872 249.674 100.636 249.674 104.164V110.428C249.674 112.444 249.674 113.632 249.962 115H245.786C246.038 113.632 246.038 112.408 246.038 110.572V101.14C246.038 99.196 246.038 97.972 245.786 96.604H249.458V99.772C250.322 97.684 251.906 96.244 254.426 96.244C258.026 96.244 259.502 99.124 259.502 103.336V110.464ZM268.071 108.556H266.955C265.515 108.556 264.975 108.916 264.975 109.636C264.975 110.428 265.515 110.644 266.559 110.644H270.843C274.263 110.644 275.811 112.228 275.811 114.892C275.811 118.744 272.607 120.544 267.999 120.544C265.515 120.544 261.483 119.932 261.483 116.584C261.483 114.964 262.743 113.956 264.435 113.416C262.959 113.128 261.987 112.336 261.987 110.752C261.987 109.204 262.959 108.088 265.227 107.62C263.211 106.792 262.167 105.1 262.167 102.544C262.167 98.368 264.903 96.244 268.539 96.244C271.383 96.244 273.291 97.648 274.083 99.736C274.083 97.612 275.199 96.28 276.351 96.28C276.963 96.28 277.431 96.496 277.683 96.964V100.708C277.143 100.312 276.639 100.096 276.243 100.096C275.055 100.096 274.551 101.248 274.551 102.328C274.551 106.036 272.319 108.556 268.287 108.556C268.215 108.556 268.143 108.556 268.071 108.556ZM268.287 106.36C269.979 106.36 270.951 105.136 270.951 102.436C270.951 99.808 270.159 98.548 268.467 98.548C266.739 98.548 265.767 99.88 265.767 102.472C265.767 105.208 266.775 106.36 268.287 106.36ZM264.939 115.576C264.939 117.412 266.055 118.24 268.323 118.24C270.663 118.24 272.319 117.484 272.319 115.54C272.319 114.028 271.311 113.632 269.763 113.632C268.647 113.632 267.063 113.632 266.559 113.596C265.659 113.668 264.939 114.172 264.939 115.576Z" fill="black"/>
</svg>
