<svg width="264" height="135" viewBox="0 0 264 135" fill="none" xmlns="http://www.w3.org/2000/svg">
<path d="M27.9562 53H11.9704C12.5765 50.4241 12.5765 47.8482 12.5765 43.6055V13.9826C12.425 13.9068 12.1977 13.9068 12.0462 13.9068H8.25806C6.43977 13.9068 4.3942 14.2856 0.75762 16.0281L1.13643 3.75468H39.169L39.472 16.0281C35.8354 14.2856 34.3202 13.9068 32.0473 13.9068H28.2592C28.0319 13.9068 27.8047 13.9068 27.5774 13.9826V43.6055C27.6531 47.8482 27.5774 50.4241 27.9562 53ZM78.1278 42.3933C78.1278 47.0906 78.1278 49.8938 78.6582 53H62.7481C63.2785 50.2726 63.2785 47.8482 63.2785 44.0601V31.029C63.2785 25.5741 62.5208 24.1347 61.0056 24.1347C59.4146 24.1347 58.2782 25.6499 58.2782 29.3622V43.0752C58.2782 47.3936 58.2782 50.0453 58.8843 53H42.8985C43.4288 49.9695 43.4288 47.2421 43.4288 43.1509V10.1945C43.4288 6.10331 43.4288 3.60316 42.8985 0.724199H58.2782V17.9979C60.3237 14.3614 63.5057 11.8612 67.8999 11.8612C74.3397 11.8612 78.1278 17.013 78.1278 25.8772V42.3933ZM100.408 53.7576C90.332 53.7576 82.68 47.4694 82.68 33.908C82.68 21.5588 88.9683 11.8612 100.56 11.8612C110.712 11.8612 117.531 19.2101 117.531 32.5443L115.94 35.4232H98.2113C98.6658 40.272 100.03 44.2874 103.363 44.2874C106.848 44.2874 108.742 39.9689 109.576 36.7112L117.606 43.454C112.53 51.409 107.833 53.7576 100.408 53.7576ZM100.484 20.1193C99.0446 20.1193 98.1355 21.2557 97.984 29.0592H102.757C102.757 21.483 102.227 20.1193 100.484 20.1193ZM157.21 53H141.225C141.831 50.4241 141.831 47.8482 141.831 43.6055V13.9826C141.679 13.9068 141.452 13.9068 141.3 13.9068H137.512C135.694 13.9068 133.648 14.2856 130.012 16.0281L130.391 3.75468H168.423L168.726 16.0281C165.09 14.2856 163.574 13.9068 161.301 13.9068H157.513C157.286 13.9068 157.059 13.9068 156.832 13.9826V43.6055C156.907 47.8482 156.832 50.4241 157.21 53ZM183.837 21.3315C179.594 21.3315 176.639 25.7257 174.972 29.135L168.078 21.8618C172.775 14.0583 180.2 11.8612 186.564 11.8612C194.14 11.8612 202.171 14.5887 202.171 25.7257V41.2569C202.171 45.4238 203.535 46.4087 204.747 46.4087C205.126 46.4087 205.732 46.2572 206.035 46.1057V52.0151C204.595 52.697 201.565 53.7576 198.686 53.7576C193.08 53.7576 188.913 51.6363 188.079 44.2874C186.261 50.5756 181.943 53.7576 177.321 53.7576C172.018 53.7576 167.169 49.5149 167.169 42.4691C167.169 31.2563 178.079 28.7562 186.185 28.2258L187.322 28.1501V26.7863C187.322 23.4528 186.791 21.3315 183.837 21.3315ZM182.397 38.8325C182.397 41.7872 183.23 43.3782 184.215 43.3782C185.806 43.3782 187.322 39.6659 187.322 35.499V33.1503C183.988 33.4534 182.397 34.8929 182.397 38.8325ZM208.998 0.724199H224.302V43.6055C224.302 47.6967 224.302 50.1968 224.908 53H208.998C209.528 50.121 209.528 47.5451 209.528 43.6055V10.1945C209.528 6.10331 209.528 3.60316 208.998 0.724199ZM246.753 53.7576C236.677 53.7576 229.025 47.4694 229.025 33.908C229.025 21.5588 235.313 11.8612 246.905 11.8612C257.057 11.8612 263.876 19.2101 263.876 32.5443L262.285 35.4232H244.556C245.011 40.272 246.375 44.2874 249.708 44.2874C253.193 44.2874 255.087 39.9689 255.921 36.7112L263.951 43.454C258.875 51.409 254.178 53.7576 246.753 53.7576ZM246.829 20.1193C245.39 20.1193 244.481 21.2557 244.329 29.0592H249.102C249.102 21.483 248.572 20.1193 246.829 20.1193ZM19.2436 123.758C8.86416 123.758 1.591 116.484 1.591 103.15C1.591 88.3768 10.5309 81.8612 20.3042 81.8612C30.4563 81.8612 37.881 88.8313 37.881 102.317C37.881 116.409 29.6987 123.758 19.2436 123.758ZM19.6981 114.212C21.7437 114.212 22.5771 112.924 22.5771 102.62C22.5771 93.3013 22.1983 91.4072 19.8497 91.4072C17.9556 91.4072 16.8949 92.6952 16.8949 102.544C16.8949 112.924 17.7283 114.212 19.6981 114.212ZM60.0527 114.212C60.0527 118.075 60.0527 120.348 60.6587 123H44.7487C45.2791 120.197 45.2791 117.848 45.2791 113.833V94.4377H40.1272V85.6493L45.2791 85.119C45.5063 73.8304 52.4007 70.0423 59.9011 70.0423C63.2347 70.0423 66.7197 70.8 69.2199 71.8606L66.947 81.6339C65.5833 80.346 64.2196 79.3611 62.8558 79.3611C61.1133 79.3611 60.0527 80.7248 60.0527 84.5129V84.8917H66.4924V94.4377H60.0527V114.212ZM80.7179 73.7547H105.719C112.311 73.7547 117.766 77.6185 117.766 83.9826C117.766 89.2859 114.129 92.9225 110.189 94.2862C116.402 96.1045 119.584 101.559 119.584 108.454C119.584 118.985 112.159 123 105.416 123H80.7179C81.324 120.197 81.324 117.697 81.324 113.606V83.1492C81.324 79.058 81.324 76.5579 80.7179 73.7547ZM98.825 92.9982H99.81C101.401 92.9982 102.234 91.2557 102.234 88.3768C102.234 85.3463 101.325 84.0583 99.3554 84.0583H98.7493C98.522 84.0583 97.234 84.1341 96.3249 84.3614V92.6194C97.0825 92.9225 98.4462 92.9982 98.825 92.9982ZM99.2039 112.696H100.416C102.916 112.696 104.053 110.651 104.053 107.393C104.053 104.135 102.916 102.09 100.643 102.09H99.2796C98.9008 102.09 97.234 102.165 96.3249 102.544V112.318C97.3098 112.621 98.825 112.696 99.2039 112.696ZM124.22 71.8606C124.22 66.5573 127.326 63.6026 131.721 63.6026C136.418 63.6026 139.6 66.5573 139.6 71.8606C139.6 77.164 136.418 80.1945 131.721 80.1945C127.326 80.1945 124.22 77.164 124.22 71.8606ZM123.841 82.6946H139.145V113.606C139.145 117.697 139.145 120.197 139.751 123H123.841C124.372 120.121 124.372 117.545 124.372 113.606V92.1649C124.372 88.0737 124.372 85.5736 123.841 82.6946ZM159.625 107.469H157.731C156.822 107.469 155.004 107.923 155.004 109.514C155.004 110.727 156.443 111.257 159.019 111.257H166.52C177.202 111.257 180.536 114.969 180.536 120.803C180.536 130.349 170.99 134.667 160.534 134.667C151.064 134.667 143.185 133.531 143.185 127.849C143.185 124.288 147.049 122.242 151.746 121.333H151.367C147.503 121.333 143.639 118.53 143.639 114.136C143.639 110.12 146.594 106.863 153.64 105.726C147.428 104.135 144.624 100.423 144.624 94.7408C144.624 86.1039 151.216 81.8612 161.671 81.8612C169.247 81.8612 174.399 84.5129 176.293 89.5889C176.369 85.6493 178.414 81.8612 181.369 81.8612C182.202 81.8612 183.263 82.1643 184.172 82.7704V94.0589C182.884 92.8467 181.217 92.8467 180.081 92.8467C178.49 92.8467 177.202 93.5286 177.202 94.8165C177.202 102.09 170.535 107.469 160.534 107.469C160.231 107.469 159.928 107.469 159.625 107.469ZM160.913 100.499C162.428 100.499 163.035 98.2258 163.035 94.5892C163.035 90.4223 162.656 89.1344 160.913 89.1344C159.246 89.1344 158.716 90.4981 158.716 94.665C158.716 98.9834 159.322 100.499 160.913 100.499ZM154.776 124.212C154.776 126.409 156.519 127.243 159.928 127.243C163.186 127.243 165.762 126.258 165.762 123.985C165.762 121.864 163.262 121.333 159.701 121.333H157.731C156.671 121.333 154.776 122.091 154.776 124.212ZM206.514 112.469H213.106C215.151 112.469 216.894 112.015 220.227 110.348L219.924 123H186.74C187.346 119.666 187.346 117.091 187.346 113.302V83.1492C187.346 79.058 187.346 76.5579 186.74 73.7547H202.878C202.347 76.5579 202.347 79.058 202.347 83.1492V111.939C203.711 112.242 205.832 112.469 206.514 112.469Z" fill="#6D0F43"/>
</svg>
